<?xml version="1.0" encoding="utf-8"?>
<svg xmlns="http://www.w3.org/2000/svg" xmlns:xlink="http://www.w3.org/1999/xlink" version= "1.1" width="1500px" height="1000px" viewBox="-390 214 1500 1000">
<g id="layer1">
<g style="fill:rgb(201,73,123); fill-opacity:1.0; stroke-linejoin: miter">
<path d="M-390.001,212.64531C-390.36002,212.64531,-390.70435,212.78793,-390.95822,213.0418C-391.2121,213.29565,-391.3547,213.63997,-391.3547,213.999L-391.3537,1214.0C-391.3537,1214.7477,-390.74762,1215.3536,-390.0,1215.3536L1110.001,1215.3546C1110.36,1215.3546,1110.7042,1215.212,1110.9581,1214.9581C1111.212,1214.7042,1111.3546,1214.36,1111.3546,1214.001L1111.3536,214.0C1111.3536,213.25238,1110.7477,212.64632,1110.0,212.64632L-390.001,212.64531 Z"/>
</g>
<g style="fill:rgb(103,118,120); fill-opacity:0.99607843; stroke-linejoin: miter">
<path d="M768.48785,961.3431L768.52203,961.35724L774.59955,967.5091L774.5998,967.5103L780.03046,973.06696L779.9957,973.14825L655.73755,972.2591L655.7366,972.2579L530.7099,971.29254L530.6642,971.25726L529.4656,966.8658L529.4656,966.8658L529.46436,966.8614C528.859,964.7205,528.51794,962.9328,528.4831,962.2524L528.4889,962.25287L528.5148,962.28326L528.5214,962.1938C531.7535,961.955,559.8669,961.79584,593.66046,961.674L593.66565,961.67474L593.666,961.6728L598.1926,961.665L599.21985,961.66327L600.26263,961.66144C635.972,961.60065,685.2288,961.517,713.76935,961.4283L713.77325,961.4288L713.7741,961.4273L768.48785,961.3431 Z"/>
</g>
<g style="fill:rgb(103,118,120); fill-opacity:0.99607843; stroke-linejoin: miter">
<path d="M451.4587,960.31256L451.46066,960.3139C452.04904,960.33453,453.32364,960.3848,455.31158,960.4655L455.31287,960.4643L462.9386,960.77313L477.6441,961.36847L477.6455,961.36725C490.87915,961.89935,501.87415,962.4172,503.49,962.5932L503.48462,962.69196L503.49023,962.6922C503.49164,962.695,503.49292,962.6982,503.49414,962.70123L503.49414,962.7021L503.53918,962.63446C503.77844,963.21454,504.39948,965.0878,505.04004,967.29144L505.04004,967.2918L506.22833,971.4239L506.16327,971.5096L451.10043,971.1777L451.0338,971.1099L451.06665,965.6702C451.08255,963.06305,451.23184,961.03656,451.38647,960.36444L451.4522,960.3123 Z"/>
</g>
<g style="fill:rgb(0,0,0); fill-opacity:0.99607843; stroke-linejoin: miter">
<path d="M729.6242,964.8162L729.62396,964.81805L729.6243,964.8171L729.6242,964.8162 Z"/>
</g>
<g style="fill:rgb(255,255,255); fill-opacity:0.99607843; stroke-linejoin: miter">
<path d="M909.27045,923.2815L909.2703,923.2818Q909.2703,923.283,909.27045,923.2815 Z"/>
</g>
<g style="fill:rgb(255,255,255); fill-opacity:1.0; stroke-linejoin: miter">
<path d="M772.5987,1036.7432L772.5987,1036.7437L772.5987,1036.7432 Z"/>
</g>
<g style="fill:rgb(60,70,79); fill-opacity:0.99607843; stroke-linejoin: miter">
<path d="M875.8857,544.4381L875.8857,544.4386L875.8857,544.4388L875.8857,544.4386L875.8857,544.4381L875.8857,544.4386L875.8857,544.4388Q875.8857,544.4386,875.8857,544.4381 Z"/>
</g>
<g style="fill:rgb(60,70,79); fill-opacity:0.99607843; stroke-linejoin: miter">
<path d="M865.38934,531.9482L865.38934,531.9483L865.38934,531.9486L865.38934,531.9483L865.38934,531.9482L865.38934,531.9483L865.38934,531.9486Q865.38934,531.9483,865.38934,531.9482 Z"/>
</g>
<g style="fill:rgb(34,43,50); fill-opacity:1.0; stroke-linejoin: miter">
<path d="M871.3003,544.1763L871.3043,544.1765L871.3043,544.1774L871.3043,544.1765L871.3003,544.1763 Z M451.0731,960.3569C451.1098,960.36615,451.14236,960.3692,451.17194,960.3692L451.1727,960.3702L451.0796,960.3569 Z M528.2549,962.2713C528.23755,962.2745,528.2301,962.2769,528.2301,962.27765L528.2333,962.2784C528.2379,962.2774,528.2475,962.27545,528.2605,962.2713 Z M503.6562,962.68414C503.664,962.68646,503.66986,962.68744,503.67273,962.6879L503.67462,962.6882C503.67462,962.68744,503.67084,962.68585,503.66235,962.6839 Z M768.48785,961.3908L713.7741,961.47504L713.7747,961.4755C684.66095,961.566,634.0698,961.6517,598.1929,961.71295L593.66614,961.7204L593.66705,961.72064C559.8662,961.84393,531.75775,962.0031,528.5249,962.24176L528.5306,962.2426C528.5631,962.9123,528.90314,964.7005,529.5108,966.8486L529.51215,966.8526L530.7104,971.24445L655.7382,972.21027L655.7378,972.2105L779.9963,973.10077L774.5655,967.5428L768.48785,961.3908 Z M451.45172,960.37946C451.29916,961.04364,451.1497,963.0628,451.13376,965.6705L451.10104,971.1104L506.1637,971.4427L504.97552,967.3101C504.33478,965.10614,503.71344,963.23236,503.47662,962.6585L503.48273,962.659C501.86902,962.48395,490.87927,961.96625,477.64258,961.43427L477.64258,961.43475L462.93588,960.8399L455.31015,960.5312L455.31015,960.53217C453.3571,960.4528,452.011,960.4001,451.4584,960.3797 Z M872.98236,1023.1096L872.98474,1023.1101L872.9875,1023.1096L872.98236,1023.1101 Z M867.0573,544.081C867.0598,544.0809,867.06244,544.0809,867.0651,544.0812L871.3043,544.1765L871.3043,544.1774L871.3123,544.1765C873.62256,544.2607,880.9832,544.7222,887.658,545.2499L887.65814,545.25L887.6908,545.25195L887.6908,545.2528L887.72437,545.2548L887.72424,545.25543C899.86487,546.1609,900.01715,546.1859,925.0245,553.20685L925.0245,553.2076C947.90826,559.5351,950.5991,560.2854,950.18835,562.17957L950.1817,562.2058L950.1822,562.2063C949.8022,563.99255,933.643,661.6609,914.1189,780.18695L906.8283,824.4647L901.20996,858.5882C876.48615,1008.7343,874.3425,1021.6245,873.56494,1022.8019L873.56494,1022.80237C873.4221,1023.01843,873.2367,1023.09753,873.05743,1023.1089L873.0598,1023.1094C872.9126,1023.27405,872.68225,1023.95496,872.6764,1024.9413L872.664,1026.9584C872.66327,1027.083,872.61304,1027.2015,872.5245,1027.289C872.4362,1027.3765,872.3166,1027.425,872.19214,1027.4243L410.20264,1024.6238C409.9488,1024.6221,409.7423,1024.4191,409.73672,1024.1653L409.40872,1009.4312C409.1798,1001.36163,409.0688,985.2249,409.13892,973.6176L409.26636,952.55914C409.2682,952.3002,409.47952,952.0916,409.73853,952.09296L796.4037,954.4343L796.42017,951.70636L796.4396,948.5091C796.4407,948.33777,796.535,948.1804,796.686,948.099C796.7564,948.06116,796.83405,948.04254,796.9113,948.0428C796.9993,948.04315,797.0872,948.0687,797.16376,948.11847L798.8946,949.24084L798.90735,949.24976C799.3994,949.5922,799.7335,949.7485,799.92316,949.8044L799.92303,949.8052C800.6841,943.7831,827.7839,779.9854,828.4815,777.1492L828.4806,777.1495C828.47876,777.14905,828.5012,777.0587,828.55865,776.97156L828.55725,776.9721C828.6826,776.7862,828.8979,776.7502,828.90967,776.74854L828.90955,776.7489C829.09515,776.7072,829.44415,776.6981,829.8578,776.7009C831.74854,776.7123,836.2982,776.9922,841.4897,777.3985L841.49097,777.3995C846.45844,777.7473,849.46436,777.93677,851.4088,777.9483C853.70215,777.96234,854.42065,777.7262,855.0977,777.2804L855.10803,777.27374C856.7937,776.22675,857.5838,773.95874,856.95844,771.9141L856.95746,771.91113C856.3272,769.8029,853.372,768.8948,841.56165,768.25696L841.5627,768.2575C835.15704,767.96967,831.2491,767.53534,830.4923,766.9815L830.4922,766.9821C830.3953,766.9108,830.2085,766.74396,830.21027,766.4686C830.2104,766.44214,830.2131,766.4176,830.21344,766.4135L830.2133,766.41296C830.3131,765.3979,838.43884,715.4666,848.4066,655.01733L848.4066,655.01807L866.5917,544.474C866.6292,544.24585,866.8271,544.07947,867.0573,544.081 Z"/>
</g>
<g style="fill:rgb(34,43,50); fill-opacity:0.99607843; stroke-linejoin: miter">
<path d="M843.21356,732.9168L837.8965,732.5167L832.5793,732.11676Q830.11536,764.8487,827.6509,797.57983Q832.9681,797.98016,838.285,798.38135Q840.7496,765.6491,843.21356,732.9168 Z"/>
</g>
<g style="fill:rgb(68,197,229); fill-opacity:0.99607843; stroke-linejoin: miter">
<path d="M922.2736,573.555L896.3683,565.4388L870.46326,557.3229L809.55066,942.7789Q831.8266,964.92255,854.10254,987.06635L922.2736,573.555 Z"/>
</g>
<g style="fill:rgb(255,177,147); fill-opacity:1.0; stroke-linejoin: miter">
<path d="M439.9076,587.80347C442.48047,585.8895,445.68835,585.71326,449.89096,587.3142C450.9542,587.7243,452.09213,588.11127,452.43777,588.1667C452.78357,588.2222,453.36237,588.4379,453.73834,588.62885C454.1143,588.81995,455.1199,589.1284,455.97375,589.31445C459.32465,590.0339,460.6151,590.40454,461.95242,591.0636C462.73434,591.4422,463.9329,591.96155,464.64053,592.225C465.335,592.50494,466.03207,592.816,466.16745,592.925C466.31964,593.0475,466.8479,593.2221,467.36945,593.33606C467.89148,593.4495,468.38586,593.59717,468.48743,593.6787C468.58868,593.7604,469.0358,593.89746,469.50702,593.9702C469.96442,594.05963,470.73654,594.347,471.2,594.63666C472.49954,595.37695,475.02536,596.4635,476.07205,596.72095C476.99368,596.9614,480.11713,597.7209,482.46478,598.3021C483.1626,598.47375,483.9352,598.6222,484.1656,598.61304C485.52533,598.62054,489.62573,600.2783,492.0448,601.80896C492.85693,602.3234,493.80768,602.8384,494.14337,602.94104C494.49548,603.0576,495.10468,603.4089,495.51044,603.73584C496.55865,604.5804,501.98022,607.60895,502.91858,607.86255C503.34857,607.98663,504.21893,608.32495,504.83496,608.59827C505.4513,608.8714,506.653,609.4212,507.49945,609.8242C508.35944,610.2103,509.2636,610.57587,509.51447,610.6108C510.11407,610.7313,513.542,612.7395,515.5479,614.16003C517.4689,615.51263,519.04614,616.3923,520.2519,616.8338C520.7493,617.0117,521.4365,617.36993,521.7748,617.64233C522.11304,617.9147,522.9015,618.3547,523.5176,618.62787C524.1339,618.9013,525.5483,619.706,526.6307,620.43866C527.7269,621.1542,528.71826,621.7576,528.8741,621.77185C529.0945,621.8099,529.73724,622.18823,533.7401,624.7985C536.7747,626.74115,538.19775,627.05096,538.76465,625.8629C538.9901,625.3754,538.8274,623.29315,538.5568,623.07526C538.4721,623.0074,538.29425,622.50116,538.17377,621.9586C538.0536,621.41583,537.7751,620.5504,537.58014,620.0306C536.9276,618.418,535.8135,615.9598,535.5706,615.5691C535.456,615.3652,535.2808,615.029,535.2137,614.83563C534.8041,613.6134,533.15546,610.7803,532.2941,609.8078C531.92596,609.3998,531.37213,608.70276,531.0584,608.2271C530.16064,606.91876,526.6043,602.8555,525.6235,602.0655C525.14667,601.65375,524.549,600.97687,524.28564,600.54193C522.86304,598.08636,521.93427,597.0593,519.4718,595.2713C513.8369,591.1226,511.54303,589.6097,510.57098,589.3285C510.02924,589.1708,508.84082,588.60376,507.9203,588.0856C506.56976,587.3044,506.11365,586.9366,505.38403,586.04266C504.2157,584.6556,502.5995,581.2634,502.17517,579.3328C501.62738,576.8284,502.39844,574.3834,504.12817,573.10046C504.9886,572.4827,507.39685,572.05365,507.87054,572.4348C508.0224,572.5573,508.6488,572.783,509.2384,572.9513C510.14288,573.17786,510.83643,573.5972,513.23126,575.33093C514.8244,576.5024,516.6682,577.70886,517.3487,578.0063C518.0155,578.3204,519.0715,578.9476,519.68005,579.43774C520.28876,579.9281,521.45966,580.6202,522.3025,580.9925C523.1456,581.3649,524.14703,581.9212,524.5192,582.2204C524.922,582.51654,525.6188,582.9667,526.1096,583.22217C526.66473,583.50226,527.6824,584.3502,528.8383,585.4761C530.4063,586.9902,530.9948,587.43634,532.67346,588.3978C534.36554,589.34265,536.03253,590.6297,543.6382,596.7273C554.20184,605.20776,553.09406,603.9531,554.6773,609.0477C555.825,612.67566,555.95264,613.00165,556.6559,614.6552C556.98535,615.4224,557.6014,616.8383,558.01855,617.8434C558.4491,618.83167,558.83563,619.8394,558.8788,620.0974C558.9053,620.3413,559.0265,620.6064,559.1111,620.6747C559.2126,620.75635,559.38727,621.2318,559.51776,621.7269C559.7086,622.494,560.74634,625.39294,561.6878,627.82367C561.9869,628.59424,563.79803,632.506,564.6439,634.1905C565.35114,635.59625,566.27875,637.04065,566.7013,637.3813C566.8872,637.5309,567.19794,637.97595,567.42694,638.3834C567.63934,638.7775,568.5711,639.974,569.5034,641.03174C570.9521,642.72815,571.3445,643.07184,572.36005,643.6111C573.03,643.95575,573.9812,644.4707,574.5228,644.7676C575.04724,645.0508,575.79175,645.3719,576.18823,645.4683C576.5539,645.5675,577.2449,645.81744,577.6984,646.0157C578.15216,646.214,579.1985,646.6104,580.0623,646.88776C580.9093,647.1518,582.0231,647.6033,582.5473,647.8862C583.5598,648.3946,586.25543,649.3396,586.7336,649.33435C586.9027,649.3312,588.0544,649.7014,589.27673,650.15656C592.51117,651.36725,593.3408,651.61743,593.9676,651.70435C594.27954,651.73254,594.84186,651.93427,595.2176,652.1255C595.593,652.3168,596.7582,652.67004,597.8049,652.9273C598.8824,653.18176,599.84076,653.4803,599.95935,653.57556C600.0775,653.67096,600.55524,653.8045,601.00946,653.8637C601.4636,653.9228,601.9073,654.0293,601.9918,654.0975C602.31323,654.3564,609.06177,655.94464,609.37366,655.83417C609.4793,655.807,609.86194,655.9203,610.20715,656.1149C610.97235,656.48004,613.2145,657.0877,613.81464,657.0692C614.04535,657.05994,614.4722,657.15283,614.76324,657.2758C615.05475,657.39856,615.6373,657.5057,616.02716,657.54114C616.4305,657.55927,618.49725,657.96967,620.60144,658.43756C626.29663,659.7072,627.60486,659.81354,634.1661,659.52325C642.3726,659.1638,644.71,658.6496,647.7545,656.66943C648.64825,656.07855,649.80365,655.337,650.3538,654.99945C650.8737,654.66565,652.04266,653.9068,652.936,653.31616C653.8466,652.7394,654.7636,652.22394,655.0044,652.1669C655.24854,652.1405,655.5135,652.01953,655.5818,651.93494C655.6498,651.8504,656.98285,651.6141,658.5193,651.40234C660.0731,651.20374,661.3624,650.9878,661.41675,650.9203C661.4577,650.8695,662.48846,650.83563,663.7089,650.8429C664.8991,650.85345,665.9603,650.8164,666.0485,650.77606C666.13684,650.7358,667.2931,650.719,668.642,650.7745C669.97473,650.81586,671.85986,650.8289,672.81213,650.78815C673.76526,650.747,674.81964,650.7879,675.1653,650.8433C676.3143,651.0435,682.1758,651.1376,683.96295,650.9607C684.7126,650.89496,685.879,650.8314,686.5742,650.83344C688.68976,650.83716,703.6207,656.4009,702.3014,658.38574C700.989,660.39795,699.3485,661.0544,699.31964,661.1586C696.87146,669.85724,689.10175,665.6923,671.7256,687.26587C654.8397,708.2307,640.94995,725.3371,640.88214,725.2828C640.79755,725.2144,640.5093,725.2612,640.2311,725.3992C639.9492,725.50696,638.7984,726.0015,637.6745,726.4623C636.5371,726.93994,634.86676,727.6294,633.9839,728.03345C633.0841,728.42377,632.17786,728.7528,631.9777,728.7589C631.77765,728.7652,631.5674,728.8187,631.4993,728.9034C631.40405,729.0218,630.20197,729.47534,628.6953,729.96216C626.12933,730.7944,624.7852,731.217,624.4056,731.2733C623.754,731.39014,620.3211,732.9177,619.45465,733.47455C619.0366,733.7512,618.45593,734.09174,618.13,734.21924C617.7904,734.36414,617.4576,734.56976,617.3893,734.6546C617.23975,734.8404,613.67706,736.5983,612.5671,737.04224C612.241,737.1703,611.3415,737.56036,610.547,737.9241C609.7522,738.2874,608.62506,738.71747,608.0585,738.90234C607.4744,739.07355,606.7042,739.3726,606.293,739.5712C605.9128,739.76666,605.0978,740.0858,604.4871,740.29095C603.8762,740.4957,602.807,740.889,602.11426,741.19507C601.4046,741.48755,600.35223,741.8946,599.7548,742.0823C598.84204,742.3505,597.27325,742.98285,595.1345,743.9079C593.88135,744.45984,588.3667,747.15424,588.2713,747.27264C588.20306,747.35706,587.97906,747.42755,587.76196,747.41986C587.5314,747.4293,587.14777,747.5944,586.8897,747.77637C586.6481,747.9723,585.25903,748.69336,583.8059,749.3904C582.3353,750.0737,580.9601,750.7778,580.72906,750.9264C580.4845,751.0917,579.77466,751.38416,579.147,751.57526C578.50214,751.75323,577.7384,751.97424,577.4399,752.0681C576.3943,752.3969,574.89746,752.8363,573.6083,753.1916C572.9057,753.40607,571.70764,753.7511,570.96136,753.98596C570.23145,754.23456,569.1559,754.56647,568.60254,754.73425C568.0494,754.9019,567.21405,755.1769,566.76953,755.34845C564.814,756.11505,560.9103,757.57007,559.91235,757.9095C559.30133,758.11395,558.4221,758.40985,557.97754,758.5812C557.1765,758.8835,555.03827,759.53094,554.1933,759.7144C553.96606,759.7542,552.86676,760.0119,551.73364,760.2419C550.61743,760.4862,549.3686,760.79016,548.965,760.9111C547.30835,761.445,546.9352,761.5624,546.3276,761.7978C545.9883,761.9423,545.3329,762.16724,544.8547,762.3116C544.4064,762.4524,543.25214,762.91656,542.2945,763.34424C541.1299,763.8555,539.8844,764.19073,538.5279,764.3521C535.9333,764.6317,534.53815,764.14923,531.1654,761.7952C529.9106,760.8962,528.6724,760.1495,528.4179,760.08417C528.1673,760.04956,527.42926,759.6503,526.78326,759.24133C525.3557,758.3146,522.6642,757.12213,522.0336,757.144C521.7859,757.13983,521.1322,756.9478,520.5668,756.7152C516.3888,754.91144,515.0915,754.4798,513.2855,754.19574C510.97424,753.8119,505.92627,752.673,504.34113,752.1491C499.70117,750.642,498.43933,749.82056,498.0078,748.107C497.75372,747.0382,498.08453,745.3814,498.71094,744.6038C499.1875,744.0121,499.5595,742.3044,499.28973,741.8084C499.20905,741.6319,497.76898,740.3049,496.0987,738.8482C492.8598,736.0168,489.45053,732.60126,488.22192,730.9426C487.80664,730.3854,487.19525,729.7257,486.89102,729.4805C485.8089,728.6089,484.9683,726.3988,484.74982,723.798C484.6217,722.4684,484.58853,721.2984,484.65665,721.2139C484.7382,721.1127,484.78415,720.53625,484.7932,719.9023C484.8052,719.29877,484.82803,718.5089,484.8562,718.19696C484.88452,717.88525,484.99725,716.6379,485.09952,715.4381C485.4269,711.7437,485.53122,710.9911,485.78558,709.9139C485.90894,709.48364,486.20816,708.24695,486.43524,707.2036C486.69318,706.1568,486.94714,705.2184,487.02893,705.1171C487.1786,704.93134,487.91434,701.8722,488.3117,699.68335C488.44955,698.9583,488.8558,697.13855,489.2061,695.6651C489.53986,694.1779,489.90485,692.54803,490.00803,692.0737C490.22214,690.9082,491.2162,689.67426,492.74847,688.70593C494.0907,687.83575,496.11108,686.815,496.74573,686.6848C497.21393,686.58813,501.21735,684.76715,503.72357,683.52423C504.6609,683.05273,505.58472,682.5979,505.778,682.5308C505.97156,682.46356,506.76617,682.0999,507.5437,681.72296C508.32135,681.3456,509.2044,680.9417,509.51312,680.8006C509.8391,680.67236,510.80017,680.2758,511.68622,679.9023C512.5419,679.53253,513.71295,679.0817,514.2661,678.914C516.28534,678.3104,517.61334,677.59595,518.3112,676.7643C519.1756,675.75995,519.2217,675.18365,518.69183,672.41534C518.3184,670.5256,517.93146,669.65656,516.4697,667.699C515.7103,666.6691,511.93884,663.9103,511.0376,663.7142C510.62762,663.6349,508.96814,663.1342,507.33557,662.59985C505.68927,662.08276,503.5996,661.45856,502.71204,661.24554C501.8073,661.0189,500.85217,660.75104,500.578,660.6417C500.3036,660.5324,499.4226,660.38025,498.62616,660.2964C496.61285,660.09595,496.51813,660.0757,493.4792,659.38416C489.88803,658.5824,489.19342,658.44116,488.4169,658.4015C487.96625,658.37274,486.52353,657.8797,484.58664,657.10046C483.8924,656.81995,483.10028,656.48834,482.79544,656.38214C481.90826,656.0303,477.91693,655.2407,477.06912,655.25476C476.62183,655.25684,475.6896,655.20294,475.03204,655.11926C474.3438,655.03906,473.37454,654.92725,472.829,654.87787C470.44275,654.6566,469.3208,654.56134,469.04282,654.5604C468.89,654.57697,468.4836,654.528,468.15173,654.4556C467.83633,654.39703,467.0295,654.36035,466.38516,654.3992C465.18488,654.43555,463.61874,654.373,462.11722,654.1949C459.95822,653.93353,458.92096,653.90643,457.55438,653.9767C455.3026,654.14185,452.17673,654.0772,449.4653,653.8444C446.84497,653.6018,444.82416,653.619,441.47,653.87244C440.32047,653.95,438.4727,653.9946,437.34338,653.9777C429.929,653.80396,427.09763,653.8925,426.7709,654.2987C426.59348,654.5185,423.18344,654.39215,422.16718,654.1309C421.581,653.99335,420.51746,653.7216,419.8025,653.53625C419.08777,653.3511,418.3664,653.10443,418.231,652.99554C418.09616,652.88684,417.44937,652.61664,416.7919,652.3943C414.15036,651.52106,411.15112,649.0495,410.053,646.8827C408.4195,643.6156,409.9569,638.9725,413.04263,637.8063C414.28857,637.33215,416.8497,636.8864,418.1211,636.93445C418.6635,636.95325,420.27454,636.85693,421.6819,636.736C423.1061,636.62897,424.98837,636.4725,425.86,636.3937C426.76212,636.3122,428.2105,636.1403,429.07227,635.97046C429.95093,635.8141,431.51093,635.67694,432.5316,635.69055C433.56573,635.68713,435.49857,635.5712,436.84155,635.4266C438.1545,635.28503,440.07037,635.15564,441.07394,635.15564C442.7389,635.1309,445.2243,634.9864,447.19498,634.7893C447.6223,634.74347,448.28683,634.74866,448.66306,634.8008C449.053,634.83606,449.6023,634.777,449.8976,634.6524C451.2289,634.10736,455.00266,633.0211,456.3051,632.7884C460.56607,632.06683,466.00577,631.681,468.1034,631.9493C470.12372,632.21,475.8919,631.86633,483.24826,631.0737C487.8273,630.58044,489.2276,630.5378,491.90515,630.8819C492.2508,630.93726,493.3111,631.1781,494.23572,631.4493C498.45306,632.61584,499.62244,632.72125,500.1671,632.04504C500.385,631.7747,500.52856,631.3886,500.47516,631.1784C500.34174,630.51306,499.1145,629.4409,497.35803,628.4724C496.40704,627.9572,494.85748,626.9045,493.89386,626.1284C492.94727,625.36566,491.91193,624.6433,491.59357,624.5544C491.28876,624.4483,490.1177,623.75616,488.98807,623.0129C487.85794,622.2705,486.12897,621.2678,485.16736,620.8003C484.20276,620.3017,483.1163,619.67786,482.74445,619.3781C482.37265,619.0784,481.38446,618.50574,480.50754,618.10614C479.66116,617.7031,477.81305,616.74445,476.44937,615.9804C473.73834,614.46643,472.88913,614.03284,471.90686,613.66034C471.53775,613.5298,470.40695,613.065,469.3744,612.65155C468.33817,612.20734,467.16638,611.7932,466.73965,611.70044C466.34326,611.60394,465.6525,611.3542,465.22913,611.1527C463.44876,610.2486,461.06522,609.1929,460.65552,609.1135C460.4044,609.0786,459.5549,608.6455,458.78,608.1886C458.0017,607.7009,457.02362,607.21985,456.62384,607.0931C456.22763,606.9971,455.4624,606.6315,454.95123,606.3317C454.38992,605.9906,452.90283,605.5178,451.2733,605.15283C449.55206,604.7979,448.11252,604.3356,447.38824,603.9196C446.7149,603.5441,444.8073,602.0362,442.71466,600.239C439.26276,597.2914,439.14087,597.1653,438.51114,595.90576C437.75363,594.31995,437.65887,592.15295,438.31296,590.1987C438.7685,588.83734,439.02066,588.455,439.9076,587.80347L439.9091,587.8016 Z M507.79504,712.421C507.58514,713.3391,507.3922,714.27106,507.36768,714.4741C507.12213,715.92145,506.6869,717.327,506.21985,718.1492C505.24133,719.8142,505.18958,721.0546,506.0484,722.86127C506.8532,724.59625,507.75305,726.213,507.9898,726.4037C508.10815,726.4991,508.5771,727.1281,508.9886,727.79376C509.8219,729.0783,510.07532,730.2862,509.91705,732.1094C509.68176,734.5125,509.7345,737.00806,510.00787,737.3953C510.73358,738.39813,512.0357,738.3042,514.7013,737.106C516.3652,736.3555,518.60004,736.1764,522.12177,736.47626C522.68463,736.53925,524.8615,736.3971,526.94037,736.2041C529.0196,736.0106,531.1355,735.87537,531.6337,735.9142C533.56604,736.0767,534.89386,736.36566,535.283,736.67883C536.2637,737.46857,536.914,737.6303,537.8407,737.34467C538.3632,737.1806,539.0081,736.864,539.29425,736.6479C539.71906,736.29333,540.27606,736.0171,543.10455,734.755C543.4742,734.6072,544.17377,734.3619,544.66907,734.23157C545.1643,734.10095,545.92786,733.87964,546.35925,733.7251C546.79047,733.5705,547.8933,733.2048,548.8336,732.90234C550.9411,732.2584,554.73315,730.769,554.9099,730.54913C554.9919,730.4476,555.2463,730.3739,555.47687,730.3645C556.1855,730.35,557.6262,728.38806,557.9665,726.962C558.2107,725.932,558.1757,723.1719,557.91315,720.59125C557.85333,720.18097,557.77594,719.03107,557.7181,718.06476C557.66046,717.098,557.40216,715.1343,557.17303,713.7232C556.9134,712.3153,556.711,711.00916,556.70776,710.83966C556.6107,709.5069,555.1128,704.06384,554.493,702.8952C554.05835,702.01556,553.02026,701.2628,552.2639,701.2673C551.9081,701.2592,550.63336,701.1807,549.43384,701.0783C548.2338,700.976,547.11505,700.9114,546.9284,700.90045C545.2334,700.92883,543.49097,700.8078,542.3255,700.59393C541.55286,700.44543,540.72253,700.3342,540.47516,700.3302C540.23083,700.3563,539.94617,700.2944,539.86176,700.22626C539.47296,699.91284,534.8509,700.14874,532.7813,700.5724C532.51,700.6323,531.6478,700.80255,530.89154,700.9457C529.5008,701.21924,527.46716,701.9788,527.1812,702.33374C526.8544,702.7396,521.343,705.3253,519.49335,705.92633C518.7024,706.1814,518.0199,706.4401,517.96564,706.5075C517.9248,706.5585,517.4801,706.7299,517.0184,706.8878C516.5262,707.049,515.1382,707.4918,513.8996,707.88794C510.18286,709.0759,509.1369,709.54376,508.54803,710.23987C508.33032,710.5103,507.9878,711.4893,507.79504,712.421L507.79645,712.41907 Z"/>
</g>
<g style="fill:rgb(255,177,147); fill-opacity:1.0; stroke-linejoin: miter">
<path d="M559.32684,729.26294L535.80505,734.7232Q525.1749,733.2636,515.7824,732.67566Q508.3775,732.4826,507.3181,732.74097Q504.76434,732.95123,502.66864,733.48413Q493.52197,736.1288,495.4779,743.5898Q497.86755,749.69836,509.01678,753.3356Q519.91077,757.0324,544.6267,760.9234L559.32684,729.26294"/>
</g>
<g style="fill:rgb(255,255,255); fill-opacity:1.0; stroke-linejoin: miter">
<path d="M618.868,736.59674L623.77515,694.2531L628.6825,651.90955Q639.66284,653.18195,650.6428,654.4545Q645.7361,696.7978,640.8291,739.1416Q629.8484,737.86914,618.868,736.59674"/>
</g>
<g style="fill:rgb(255,177,147); fill-opacity:1.0; stroke-linejoin: miter">
<path d="M514.8241,753.265L512.6733,753.2285Q502.95917,753.0974,499.09106,751.6148Q497.49316,751.0686,496.211,750.2312L495.02527,749.30493Q493.37085,747.7758,492.6491,745.38916Q492.26752,744.12415,492.1725,742.74146Q492.07715,741.35895,492.26636,739.946L492.52618,738.54663Q493.18848,735.71094,494.97278,733.44275Q496.60828,731.22656,499.94678,730.0607L501.80475,729.62286Q503.75494,729.304,506.0058,729.3753L508.3152,729.52264Q510.69153,729.7566,513.26825,730.25073Q517.0664,730.90533,526.82086,733.58875L514.8241,753.265"/>
</g>
<g style="fill:rgb(0,0,0); fill-opacity:1.0; stroke-linejoin: miter">
<path d="M883.91455,664.00446L761.28375,654.0004L638.6529,643.9964Q634.68964,692.578,630.72614,741.1597Q753.3571,751.1644,875.9877,761.1688Q879.9512,712.5867,883.91455,664.00446"/>
</g>
<g style="fill:rgb(255,255,255); fill-opacity:1.0; stroke-linejoin: miter">
<path d="M446.90933,936.40063L533.6712,796.80975C535.6037,793.1045,534.92676,788.9811,531.80646,786.7406L425.23483,710.2262C422.1147,707.9856,417.9911,708.66254,415.09854,711.6783L309.81754,839.06445C308.19882,840.8123,307.30023,843.0772,307.46637,845.3791C307.63254,847.6809,308.62338,849.84735,310.3036,851.0535L435.11694,940.66595L435.11713,940.6657C438.47754,943.07825,443.35815,941.8536,445.9431,938.2531C446.46002,937.533,446.80472,937.053,446.90933,936.40063 Z"/>
</g>
<g style="fill:rgb(255,115,0); fill-opacity:1.0; stroke-linejoin: miter">
<path d="M430.25345,743.2611C428.53015,745.6614,425.2313,746.20294,422.83102,744.4796C420.43073,742.7563,419.88922,739.4575,421.61255,737.05725L421.78488,736.81714L442.54416,731.71533C437.93433,734.5893,433.70007,738.46063,430.25345,743.2611 Z"/>
</g>
<g style="fill:rgb(252,184,38); fill-opacity:1.0; stroke-linejoin: miter">
<path d="M495.2516,725.1796C471.4892,708.11896,438.50082,713.53467,421.44022,737.29724C419.7169,739.6976,420.25842,742.99634,422.6587,744.71967C425.05896,746.44305,428.3578,745.9015,430.08112,743.50116C443.69516,724.53906,470.08585,720.2065,489.04788,733.8205C508.00983,747.4348,512.34247,773.82556,498.7284,792.7876C497.0052,795.18787,497.54675,798.48676,499.94702,800.21014C502.34723,801.93335,505.646,801.39185,507.3694,798.99164C524.42993,775.229,519.01416,742.24036,495.2516,725.1796 Z"/>
</g>
<g style="fill:rgb(252,184,38); fill-opacity:1.0; stroke-linejoin: miter">
<path d="M500.11926,799.97015C497.71912,798.24677,497.1775,794.9478,498.90088,792.54755C508.89594,778.6263,509.11145,760.5932,500.90143,746.69617C511.92407,762.24884,513.83185,782.8975,505.0982,800.6348C503.5166,801.31793,501.55945,801.00397,500.11926,799.97015 Z"/>
</g>
<g style="fill:rgb(252,184,38); fill-opacity:1.0; stroke-linejoin: miter">
<path d="M430.25345,743.2611C428.53015,745.6614,425.2313,746.20294,422.83102,744.4796C421.15088,743.2734,420.63998,741.4516,420.78165,739.73444C434.62332,726.0284,454.79797,721.2342,473.23074,726.4657C457.266,723.3699,440.2485,729.33966,430.25345,743.2611 Z"/>
</g>
<g style="fill:rgb(169,169,169); fill-opacity:1.0; stroke-linejoin: miter">
<path d="M309.81754,839.06445C308.19882,840.8123,307.30023,843.0772,307.46637,845.3791C307.63254,847.6809,308.62338,849.84735,310.3036,851.0535L435.11694,940.66595L435.11713,940.6657C438.47754,943.07825,443.35815,941.8536,445.9431,938.2531C446.46002,937.533,446.80466,937.053,446.90933,936.40063"/>
</g>
<g style="fill:rgb(255,177,147); fill-opacity:1.0; stroke-linejoin: miter">
<path d="M518.6899,730.9024L516.76306,730.29974Q512.89874,729.05286,509.1604,728.3001Q505.42188,727.5474,501.977,727.9476Q496.4759,728.8621,493.33734,732.5548Q490.55743,735.5903,489.42026,739.2203Q488.45178,743.046,489.15894,744.9595Q489.72934,747.2691,491.92865,749.0284L493.57727,750.11017Q495.40063,751.1128,497.79553,751.8568L500.30176,752.55054Q502.935,753.1868,505.9494,753.6507Q510.34387,754.40375,522.2917,755.3948L518.6899,730.9024"/>
</g>
<g>
<g style="fill:rgb(255,177,147); fill-opacity:1.0; stroke-linejoin: miter">
<path d="M233.53499,567.7721C230.82947,566.05066,227.6172,566.1088,223.54247,568.0117C222.51205,568.4983,221.40527,568.9672,221.06462,569.04767C220.72383,569.1282,220.16226,569.3854,219.80125,569.6033C219.44029,569.82117,218.45975,570.20215,217.6217,570.4501C214.3322,571.4118,213.07224,571.8754,211.78653,572.6301C211.03424,573.06476,209.87671,573.6701,209.19019,573.98444C208.51805,574.3142,207.84543,574.6753,207.71838,574.79395C207.5755,574.9272,207.06139,575.13995,206.54958,575.2915C206.0372,575.44257,205.55484,575.62604,205.45946,575.7148C205.36449,575.8035,204.92851,575.9727,204.46382,576.07983C204.01416,576.20215,203.26506,576.5453,202.82402,576.8679C201.58186,577.7008,199.14195,578.96857,198.11682,579.3017C197.2152,579.60864,194.15544,580.5938,191.85628,581.34454C191.17282,581.5667,190.41307,581.771,190.18274,581.7786C188.82718,581.88525,184.85846,583.8376,182.5574,585.54034C181.78484,586.11273,180.87411,586.6956,180.54692,586.8225C180.20418,586.9644,179.6222,587.3592,179.24142,587.7148C178.2575,588.6335,173.07115,592.0492,172.15378,592.3707C171.7339,592.5256,170.89056,592.9266,170.29602,593.244C169.70135,593.56134,168.54286,594.1973,167.72809,594.66113C166.89857,595.1087,166.02347,595.53937,165.77576,595.59235C165.1866,595.7563,161.91408,598.0091,160.01714,599.572C158.1998,601.06104,156.6909,602.05347,155.52048,602.5815C155.03732,602.7952,154.37804,603.2026,154.06061,603.49896C153.74307,603.79517,152.98877,604.2915,152.39424,604.6089C151.79958,604.9265,150.44759,605.8321,149.42148,606.6418C148.38025,607.43536,147.43561,608.1095,147.28111,608.13495C147.06422,608.18884,146.4507,608.61316,142.64876,611.50824C139.7637,613.667,138.36713,614.0798,137.71515,612.93616C137.45477,612.4664,137.46536,610.3777,137.71922,610.1406C137.79883,610.06683,137.93922,609.5491,138.0198,608.99896C138.10019,608.44904,138.3148,607.5654,138.47139,607.03296C139.0046,605.3771,139.9366,602.8443,140.1503,602.43677C140.24982,602.2251,140.39995,601.87695,140.45285,601.6792C140.77225,600.4305,142.21007,597.4847,142.99815,596.452C143.33563,596.0183,143.83719,595.2828,144.11537,594.7854C144.91547,593.41516,148.16609,589.1035,149.08678,588.244C149.53227,587.7986,150.07898,587.07983,150.30992,586.627C151.54971,584.0743,152.40114,582.9822,154.7268,581.01935C160.04425,576.471,162.2218,574.795,163.17065,574.44366C163.69954,574.2469,164.8435,573.5948,165.72374,573.011C167.01366,572.1334,167.44177,571.73334,168.1042,570.7886C169.16841,569.31995,170.533,565.8189,170.81552,563.8625C171.1794,561.32495,170.23207,558.9425,168.41348,557.78925C167.51039,557.23596,165.0772,556.9835,164.6326,557.39813C164.49007,557.53143,163.8818,557.8022,163.30602,558.01294C162.42053,558.305,161.75935,558.7737,159.49722,560.67737C157.9937,561.9618,156.24272,563.2995,155.58574,563.6456C154.9436,564.00745,153.93611,564.70996,153.3649,565.2433C152.79358,565.7766,151.67627,566.5522,150.86273,566.98505C150.04898,567.41785,149.09076,568.0457,148.74141,568.3713C148.36131,568.696,147.69914,569.19556,147.22835,569.4863C146.69504,569.806,145.74199,570.7259,144.67108,571.93317C143.21765,573.5575,142.66322,574.0454,141.05925,575.12646C139.44055,576.1922,137.87175,577.59735,130.73096,584.23303C120.813446,593.4611,121.82687,592.12915,120.6192,597.3255C119.739,601.0274,119.63545,601.362,119.05452,603.06226C118.7818,603.8515,118.27077,605.3086,117.92799,606.3414C117.57051,607.35846,117.258575,608.3918,117.23416,608.6521C117.22563,608.8974,117.12401,609.17053,117.04477,609.2448C116.94943,609.3337,116.80977,609.8205,116.71571,610.3239C116.58136,611.10284,115.7576,614.06964,114.995865,616.5627C114.75372,617.35297,113.23259,621.3862,112.511734,623.1279C111.90886,624.58154,111.08905,626.08966,110.69237,626.46014C110.5179,626.6229,110.24043,627.0894,110.04176,627.5127C109.85866,627.9211,109.016556,629.18225,108.16391,630.30524C106.842804,632.10266,106.47649,632.47394,105.50295,633.0858C104.85979,633.47833,103.948746,634.06134,103.43021,634.3968C102.92781,634.71747,102.20864,635.09204,101.82024,635.2171C101.46266,635.34265,100.79178,635.6423,100.35392,635.87317C99.915855,636.1039,98.90115,636.57556,98.059845,636.9152C97.23448,637.2402,96.15655,637.7716,95.654274,638.0921C94.68152,638.67285,92.06208,639.8118,91.584755,639.8415C91.41581,639.85065,90.29416,640.30383,89.10829,640.84686C85.97068,642.2901,85.16161,642.60016,84.54272,642.7324C84.23375,642.7833,83.68754,643.02545,83.326904,643.2435C82.96635,643.4616,81.82998,643.8989,80.80481,644.2319C79.74887,644.56415,78.81469,644.9317,78.70334,645.0353C78.592445,645.13916,78.12574,645.3071,77.67704,645.3993C77.228424,645.4914,76.793625,645.6299,76.71433,645.704C76.412636,645.9858,69.79783,648.06177,69.478584,647.9741C69.37136,647.95483,68.998,648.09564,68.667915,648.315C67.93136,648.7349,65.73945,649.5043,65.139465,649.5298C64.90875,649.5373,64.48979,649.66095,64.208435,649.8049C63.92669,649.94867,63.353546,650.0979,62.967377,650.16156C62.56643,650.20905,60.534927,650.76904,58.470528,651.3893C52.883064,653.0705,51.58602,653.272,45.02111,653.46063C36.81026,653.7004,34.44156,653.3578,31.260769,651.6048C30.32642,651.08075,29.119987,650.4253,28.546844,650.12885C28.003872,649.8338,26.782745,649.1621,25.848728,648.63824C24.89846,648.1294,23.946404,647.682,23.70206,647.6427C23.456593,647.6342,23.183552,647.53284,23.109268,647.4534C23.035282,647.3741,21.688576,647.23553,20.140682,647.1364C18.576649,647.0516,17.2751,646.9302,17.215866,646.8668C17.171383,646.81903,16.140858,646.8605,14.924206,646.95667C13.737976,647.054,12.676804,647.0945,12.585899,647.0606C12.4949875,647.0268,11.340492,647.09436,9.999264,647.2481C8.673067,647.3865,6.793947,647.53687,5.841133,647.5656C4.8876476,647.59406,3.8390331,647.71173,3.4983845,647.7923C2.3670444,648.0756,-3.472124,648.5968,-5.267378,648.5505C-6.0197973,648.53973,-7.1878443,648.5613,-7.8810415,648.614C-9.990655,648.7719,-24.476358,655.40936,-23.015852,657.2926C-21.560211,659.2038,-19.876297,659.73883,-19.839832,659.84064C-16.764286,668.3379,-9.318695,663.6177,9.58387,683.86707C27.952877,703.54565,43.052628,719.5942,43.116364,719.5351C43.195663,719.46094,43.48658,719.48645,43.774055,719.6038C44.06304,719.6907,45.246956,720.1,46.40143,720.47766C47.57057,720.8711,49.286743,721.4371,50.19674,721.7757C51.122505,722.09937,52.05043,722.3614,52.250443,722.353C52.450447,722.34467,52.664024,722.3826,52.7381,722.46204C52.84175,722.57336,54.07363,722.938,55.611946,723.3136C58.23156,723.95654,59.60305,724.28015,59.985786,724.30865C60.644012,724.3775,64.17922,725.6508,65.08392,726.14307C65.52101,726.38855,66.12501,726.68585,66.459366,726.7892C66.80859,726.90906,67.15553,727.0898,67.2299,727.1693C67.392525,727.34375,71.073845,728.8375,72.21335,729.1992C72.547874,729.30316,73.473434,729.62665,74.292274,729.93146C75.11148,730.2359,76.26692,730.58276,76.84557,730.72577C77.44035,730.8538,78.23044,731.09595,78.65502,731.26416C79.04845,731.4313,79.884445,731.69025,80.50854,731.85034C81.13269,732.01,82.227615,732.32416,82.9409,732.5791C83.67001,732.81903,84.74926,733.1484,85.35869,733.292C86.28874,733.49286,87.89933,734.00903,90.09975,734.7758C91.38989,735.235,97.086296,737.52026,97.189995,737.63135C97.264145,737.71063,97.49275,737.7645,97.70871,737.74115C97.93935,737.7337,98.33398,737.87024,98.6046,738.033C98.85987,738.21063,100.297775,738.82874,101.79784,739.4179C103.31426,739.99225,104.7372,740.5942,104.978584,740.7255C105.23452,740.8726,105.96381,741.1127,106.60364,741.25745C107.25986,741.38794,108.0376,741.5526,108.34216,741.6246C109.40898,741.8763,110.9337,742.2053,112.24553,742.46564C112.96181,742.62823,114.18182,742.8852,114.94322,743.0651C115.68936,743.2598,116.786255,743.51245,117.350266,743.63934C117.914215,743.76636,118.76732,743.97974,119.223236,744.1183C121.22946,744.74036,125.228806,745.9071,126.24878,746.17285C126.873184,746.3323,127.77164,746.56323,128.22754,746.70184C129.04839,746.945,131.22815,747.4347,132.08421,747.5562C132.3137,747.57947,133.42897,747.75616,134.57579,747.9031C135.70686,748.06525,136.97444,748.2774,137.38585,748.36847C139.07697,748.7802,139.45781,748.8701,140.08092,749.06055C140.42987,749.17993,141.09993,749.3565,141.5874,749.4657C142.0447,749.5733,143.22975,749.95215,144.21594,750.3089C145.4147,750.73395,146.68137,750.9775,148.04605,751.0396C150.65405,751.1293,152.01035,750.5464,155.20253,747.9528C156.38857,746.9646,157.56905,746.1297,157.81795,746.0461C158.06537,745.9933,158.7724,745.54126,159.38689,745.08624C160.74307,744.0578,163.34052,742.67255,163.97098,742.6483C164.21776,742.62616,164.85574,742.3869,165.4027,742.1138C169.43797,740.0102,170.70044,739.4852,172.48097,739.07025C174.75804,738.51886,179.70956,737.0152,181.25227,736.37714C185.77005,734.53595,186.96861,733.62463,187.2741,731.8841C187.4496,730.79974,186.99887,729.1714,186.31747,728.4416C185.79907,727.88605,185.30362,726.2101,185.53642,725.6958C185.60419,725.5138,186.94359,724.0853,188.50328,722.51086C191.52722,719.45074,194.6785,715.796,195.78296,714.0522C196.15645,713.4661,196.71817,712.7636,197.00377,712.4969C198.01944,711.54877,198.69664,709.2834,198.72499,706.6734C198.75586,705.3381,198.7037,704.16876,198.62956,704.08954C198.54082,703.9944,198.45299,703.423,198.39783,702.7912C198.34177,702.1902,198.26141,701.40405,198.21068,701.0951C198.15968,700.7863,197.95633,699.5505,197.76689,698.3614C197.17105,694.7006,197.01216,693.95764,196.67995,692.90173C196.5256,692.48175,196.13698,691.27,195.83444,690.2462C195.5009,689.2207,195.17918,688.30347,195.09026,688.2084C194.92746,688.03406,193.97078,685.0363,193.41495,682.8823C193.22462,682.16925,192.68681,680.3839,192.23001,678.9399C191.78868,677.48114,191.30594,675.88214,191.16846,675.41675C190.86996,674.26965,189.78859,673.1115,188.18979,672.2574C186.78773,671.4874,184.69815,670.61664,184.05582,670.5331C183.5818,670.47076,179.45627,668.9463,176.8662,667.8896C175.89691,667.4876,174.94249,667.1014,174.74484,667.04846C174.54683,666.9955,173.72783,666.69086,172.92491,666.3716C172.12173,666.05194,171.21158,665.71356,170.89342,665.59515C170.55896,665.4911,169.57156,665.16565,168.66058,664.8577C167.78032,664.55133,166.57948,664.1872,166.01553,664.06024C163.95776,663.60547,162.58109,662.98975,161.82458,662.21106C160.88922,661.2725,160.80132,660.7012,161.12798,657.9016C161.36263,655.98944,161.68518,655.0944,163.0003,653.0356C163.6827,651.95325,167.24301,648.92676,168.12749,648.66534C168.53062,648.55646,170.14915,647.93616,171.73854,647.2842C173.34264,646.64844,175.38138,645.8736,176.25093,645.5965C177.13672,645.30444,178.06984,644.9676,178.3353,644.8387C178.601,644.7096,179.46858,644.49365,180.25679,644.3519C182.25012,644.0054,182.3432,643.978,185.3236,643.0668C188.84679,642.0056,189.52927,641.8141,190.30075,641.7179C190.74818,641.6564,192.1511,641.0595,194.02602,640.1412C194.698,639.8108,195.46382,639.4223,195.76012,639.29425C196.61938,638.87854,200.54253,637.8002,201.38918,637.75244C201.83537,637.72186,202.76112,637.60016,203.41092,637.4688C204.09146,637.3389,205.04997,637.15656,205.5904,637.06744C207.95422,636.67303,209.06628,636.4963,209.3434,636.475C209.49704,636.4802,209.89877,636.4018,210.22453,636.3055C210.53484,636.2241,211.33687,636.1287,211.98225,636.12036C213.18202,636.0693,214.73933,635.8925,216.2239,635.60565C218.3581,635.1876,219.39067,635.0851,220.75879,635.0554C223.01657,635.056,226.1294,634.76355,228.81665,634.33386C231.41231,633.90094,233.42905,633.7708,236.79266,633.77905C237.94476,633.7725,239.7909,633.68243,240.91605,633.5831C248.29797,632.86945,251.12833,632.75146,251.48367,633.1326C251.67667,633.339,255.06851,632.9643,256.06305,632.6298C256.63748,632.4499,257.67847,632.1014,258.37805,631.86426C259.07733,631.6276,259.7788,631.329,259.9059,631.2105C260.03256,631.0922,260.6579,630.77563,261.29736,630.50586C263.86823,629.44244,266.67932,626.759,267.61658,624.5178C269.00757,621.1404,267.13583,616.62177,263.97318,615.68353C262.69614,615.30145,260.1093,615.0436,258.84476,615.1842C258.30515,615.2425,256.6914,615.26385,255.27896,615.246C253.85071,615.2429,251.96207,615.22406,251.08704,615.20905C250.1814,615.1935,248.7243,615.1276,247.85251,615.02106C246.96475,614.9293,245.3989,614.906,244.38193,614.9941C243.35037,615.066,241.41418,615.0913,240.06412,615.0448C238.74442,614.9993,236.82425,615.00995,235.82333,615.0832C234.16107,615.17993,231.67177,615.2169,229.69194,615.16394C229.26242,615.1494,228.60004,615.2031,228.22864,615.28253C227.84221,615.346,227.29018,615.32715,226.98654,615.2244C225.61913,614.77795,221.77614,613.9697,220.46022,613.8325C216.15799,613.4233,210.70467,613.43524,208.63219,613.8555C206.63628,614.2629,200.85841,614.34045,193.46368,614.0863C188.86089,613.928,187.46117,613.9874,184.81586,614.526C184.4752,614.60626,183.43521,614.9238,182.5328,615.26166C178.41164,616.7325,177.2531,616.923,176.66055,616.2883C176.42355,616.0344,176.25223,615.6599,176.2902,615.44635C176.37482,614.77313,177.52057,613.6144,179.20177,612.5203C180.11272,611.9372,181.58142,610.7744,182.48592,609.93005C183.37439,609.10034,184.35439,608.30444,184.66533,608.1926C184.96156,608.06445,186.07907,607.2888,187.15163,606.4652C188.22458,605.6424,189.87595,604.5163,190.80086,603.97986C191.72653,603.4124,192.7646,602.71106,193.11365,602.38495C193.46269,602.059,194.40656,601.4158,195.252,600.95325C196.06676,600.48975,197.84003,599.39886,199.1444,598.53735C201.73782,596.82983,202.55324,596.33545,203.50569,595.8925C203.86432,595.7354,204.95822,595.1895,205.95798,594.70166C206.959,594.1832,208.09747,593.6848,208.51631,593.5611C208.90459,593.43604,209.57535,593.13654,209.98291,592.90485C211.69263,591.8733,213.99281,590.6467,214.39568,590.53766C214.64355,590.4847,215.45923,589.9907,216.19876,589.4785C216.93948,588.9354,217.87985,588.38434,218.26929,588.2287C218.65749,588.1039,219.39404,587.6836,219.88199,587.3475C220.41698,586.9663,221.86562,586.3862,223.46419,585.9036C225.155,585.4242,226.55702,584.8581,227.24901,584.3905C227.89323,583.9668,229.68573,582.3239,231.64189,580.37897C234.86966,577.1875,234.98209,577.053,235.51834,575.7508C236.15823,574.114,236.09476,571.94586,235.29999,570.04443C234.7464,568.7199,234.46698,568.35706,233.53499,567.7721L233.53331,567.77026 Z M174.9119,697.0065C175.18814,697.9068,175.44846,698.8222,175.48766,699.0231C175.83809,700.4485,176.37456,701.81866,176.90036,702.60455C177.99767,704.1937,178.13976,705.42725,177.4148,707.2917C176.73868,709.08075,175.9591,710.7587,175.73686,710.9661C175.62582,711.0699,175.20392,711.7314,174.84203,712.4254C174.10455,713.76715,173.93982,714.9903,174.23062,716.7972C174.64035,719.17664,174.76964,721.66956,174.52519,722.0757C173.87468,723.12885,172.56902,723.13007,169.82318,722.12915C168.10913,721.5021,165.86711,721.4862,162.37656,722.04205C161.81987,722.1459,159.63835,722.1627,157.55093,722.1218C155.46321,722.08044,153.34305,722.0998,152.84885,722.17487C150.93356,722.4778,149.63042,722.8627,149.26509,723.20337C148.34459,724.0626,147.70781,724.27124,146.76283,724.0541C146.22968,723.9284,145.56339,723.6596,145.26227,723.4649C144.81284,723.1423,144.23718,722.9073,141.32428,721.8549C140.94476,721.7344,140.22919,721.54065,139.72574,721.4468C139.2223,721.3527,138.44458,721.18756,138.00311,721.0649C137.56174,720.9421,136.43517,720.65784,135.47539,720.42487C133.32657,719.93616,129.436,718.7271,129.24364,718.5207C129.15445,718.4255,128.89545,718.3705,128.66481,718.3778C127.957,718.415,126.37709,716.5635,125.933685,715.16595C125.61514,714.1565,125.44878,711.4011,125.52266,708.80817C125.55237,708.3946,125.54562,707.2421,125.53302,706.27423C125.5199,705.30585,125.63449,703.3285,125.7601,701.9045C125.91644,700.4813,126.0231,699.164,126.01396,698.99475C126.01366,697.6584,127.11073,692.12054,127.64369,690.9099C128.01305,690.001,128.99364,689.17456,129.74828,689.12396C130.10255,689.08984,131.36815,688.91876,132.55705,688.7291C133.74632,688.5395,134.85742,688.3936,135.04283,688.3691C136.73534,688.27386,138.46436,688.0261,139.6111,687.7278C140.3708,687.5233,141.19089,687.352,141.43732,687.33C141.68294,687.33826,141.96228,687.25574,142.04149,687.1816C142.40645,686.8406,147.03337,686.7389,149.1283,687.01074C149.40318,687.0507,150.2755,687.1576,151.04028,687.2452C152.44722,687.41656,154.53087,688.026,154.84192,688.3592C155.19751,688.74,160.88263,690.9171,162.77124,691.38165C163.57866,691.5785,164.27814,691.7868,164.3373,691.85C164.3817,691.89795,164.83766,692.0365,165.30965,692.16034C165.81232,692.2851,167.2289,692.6257,168.49304,692.9305C172.28656,693.84436,173.36385,694.2348,174.00188,694.88605C174.23872,695.13995,174.65163,696.0913,174.9119,697.0065L174.91026,697.0047 Z"/>
</g>
<g style="fill:rgb(255,177,147); fill-opacity:1.0; stroke-linejoin: miter">
<path d="M124.74483,717.5598L148.60197,721.2912Q159.09738,719.0604,168.42207,717.7894Q175.79326,717.0572,176.8686,717.2377Q179.431,717.2611,181.55994,717.63995Q190.87497,719.61084,189.46799,727.1945Q187.52997,733.4611,176.67558,737.9011Q166.08014,742.3823,141.71358,748.0646L124.74483,717.5598"/>
</g>
<g style="fill:rgb(255,255,255); fill-opacity:1.0; stroke-linejoin: miter">
<path d="M65.89671,729.21423L57.91597,687.3409L49.935143,645.46747Q39.07675,647.53687,28.2187,649.6064Q36.198906,691.4797,44.179367,733.3531Q55.03811,731.2836,65.89671,729.21423"/>
</g>
<g style="fill:rgb(255,177,147); fill-opacity:1.0; stroke-linejoin: miter">
<path d="M170.8785,738.2542L173.02095,738.061Q182.69968,737.2221,186.44937,735.4615Q188.00327,734.8003,189.22102,733.8717L190.33597,732.8614Q191.87447,731.2158,192.4205,728.7831Q192.70879,727.4934,192.70284,726.10767Q192.69711,724.7219,192.40543,723.32635L192.04433,721.9495Q191.17712,719.1698,189.23224,717.0376Q187.43959,714.9466,184.02504,714.0273L182.14003,713.72595Q180.17184,713.5502,177.93211,713.7853L175.63963,714.1006Q173.2867,714.5072,170.75284,715.1877Q167.01247,716.1174,157.47958,719.50476L170.8785,738.2542"/>
</g>
<g style="fill:rgb(47,134,148); fill-opacity:1.0; stroke-linejoin: miter">
<path d="M146.08823,800.1288C146.00548,799.24646,146.08525,798.3338,146.34999,797.4313L146.3494,797.431L146.35014,797.4304C146.35014,797.4303,146.35037,797.4302,146.35037,797.4298L146.91933,795.4914L146.35007,797.43066L146.3494,797.431C146.08546,798.3337,146.00572,799.246,146.08847,800.1281 Z"/>
</g>
<g style="fill:rgb(47,134,148); fill-opacity:1.0; stroke-linejoin: miter">
<path d="M293.29034,757.62024L276.79153,813.8366L293.29077,757.6191 Z"/>
</g>
<g style="fill:rgb(98,228,184); fill-opacity:1.0; stroke-linejoin: miter">
<path d="M288.41022,748.6865L177.69609,716.19055C173.8803,715.07263,169.88115,717.257,168.76138,721.0721L146.35037,797.4298C145.23047,801.2451,147.41478,805.24396,151.2302,806.36365L261.94647,838.8557C265.7611,839.97766,269.76028,837.7937,270.88007,833.9784L293.29034,757.62024C294.41003,753.8055,292.2256,749.8062,288.41022,748.6865"/>
</g>
<g style="fill:rgb(98,185,156); fill-opacity:1.0; stroke-linejoin: miter">
<path d="M276.79153,813.8366L274.4585,821.78595L271.449,832.0396L146.91933,795.4914L152.26201,777.288L276.79153,813.8366 Z"/>
</g>
<g style="fill:rgb(38,147,110); fill-opacity:1.0; stroke-linejoin: miter">
<path d="M262.6215,766.768C264.70963,759.65326,260.63528,752.19434,253.51978,750.1059C246.40433,748.0176,238.945,752.0913,236.85681,759.20654C234.76855,766.32135,238.8432,773.7806,245.95853,775.8691C253.07376,777.9572,260.53333,773.883,262.6215,766.768"/>
</g>
<g style="fill:rgb(17,194,134); fill-opacity:1.0; stroke-linejoin: miter">
<path d="M277.65082,771.1792C279.73914,764.0642,275.66428,756.60516,268.54913,754.51697C261.43402,752.4287,253.9743,756.5025,251.88629,763.6174C249.79813,770.7324,253.87256,778.1917,260.9879,780.27997C268.1034,782.3684,275.56274,778.2941,277.65082,771.1792"/>
</g>
<g style="fill:rgb(255,243,0); fill-opacity:0.99607843; stroke-linejoin: miter">
<path d="M195.25305,779.71814L197.51439,772.0067L199.77518,764.2955Q185.80888,760.19965,171.8421,756.10376Q169.5805,763.81494,167.31891,771.5263Q181.28616,775.62213,195.25305,779.71814"/>
</g>
<g style="fill:rgb(103,118,120); fill-opacity:0.99607843; stroke-linejoin: miter">
<path d="M-83.956085,961.34296L-83.99015,961.35736L-90.06776,967.509L-90.06798,967.5102L-95.498604,973.0671L-95.46394,973.14813L28.794418,972.2591L28.795395,972.2579L153.82217,971.29266L153.86792,971.2574L155.06648,966.8659L155.06642,966.8659L155.06761,966.8615C155.67297,964.72076,156.01419,962.9329,156.04893,962.2525L156.04326,962.253L156.01736,962.2834L156.01076,962.1939C152.77861,961.95514,124.66521,961.79584,90.87159,961.67426L90.86651,961.67474L90.86597,961.6728L86.33932,961.665L85.312096,961.6635L84.26928,961.66144C48.55986,961.60065,-0.69690895,961.517,-29.237453,961.4283L-29.241344,961.4288L-29.242168,961.42706L-83.956085,961.34296 Z"/>
</g>
<g style="fill:rgb(103,118,120); fill-opacity:0.99607843; stroke-linejoin: miter">
<path d="M233.07355,960.31244L233.07162,960.314C232.4832,960.3344,231.20859,960.3847,229.22064,960.46576L229.21936,960.4642L221.59364,960.773L206.88809,961.36884L206.88673,961.3676C193.65302,961.8995,182.65796,962.41754,181.04208,962.5933L181.04755,962.6923L181.04176,962.69257C181.04042,962.6951,181.03915,962.69855,181.03787,962.7017L181.03787,962.7022L180.99286,962.6348C180.75362,963.2149,180.13254,965.0883,179.49208,967.29193L179.49208,967.2922L178.30385,971.42426L178.36876,971.50995L233.43178,971.1778L233.49841,971.11005L233.46556,965.67035C233.4497,963.0632,233.30038,961.0367,233.14577,960.36456L233.08,960.31244 Z"/>
</g>
<g style="fill:rgb(0,0,0); fill-opacity:0.99607843; stroke-linejoin: miter">
<path d="M-45.092316,964.81635L-45.092163,964.81793L-45.092537,964.8172L-45.092316,964.81635 Z"/>
</g>
<g style="fill:rgb(255,255,255); fill-opacity:0.99607843; stroke-linejoin: miter">
<path d="M-122.64994,901.15955L-122.64988,901.1598Q-122.64988,901.1608,-122.64994,901.15955 Z"/>
</g>
<g style="fill:rgb(255,255,255); fill-opacity:1.0; stroke-linejoin: miter">
<path d="M-88.06691,1036.7434L-88.06691,1036.7437L-88.06691,1036.7434 Z"/>
</g>
<g style="fill:rgb(60,70,79); fill-opacity:0.99607843; stroke-linejoin: miter">
<path d="M-191.35435,544.43787L-191.35435,544.4384L-191.35435,544.43854L-191.35435,544.4384L-191.35435,544.43787L-191.35435,544.4384L-191.35435,544.43854Q-191.35435,544.4384,-191.35435,544.43787 Z"/>
</g>
<g style="fill:rgb(60,70,79); fill-opacity:0.99607843; stroke-linejoin: miter">
<path d="M-180.85791,531.9478L-180.85791,531.948L-180.85783,531.94824L-180.85791,531.948L-180.85791,531.9478L-180.85791,531.948L-180.85783,531.94824Q-180.85791,531.948,-180.85791,531.9478 Z"/>
</g>
<g style="fill:rgb(34,43,50); fill-opacity:1.0; stroke-linejoin: miter">
<path d="M-186.76892,544.17596L-186.77287,544.1763L-186.77287,544.1771L-186.77287,544.1763L-186.76892,544.17596 Z M233.45914,960.35675C233.42244,960.366,233.38985,960.3691,233.36028,960.3693L233.35956,960.37006L233.45262,960.35675 Z M156.27719,962.2714C156.29456,962.2746,156.30205,962.27704,156.30197,962.2778L156.2989,962.2785C156.29419,962.2773,156.2846,962.2756,156.27158,962.2714 Z M180.8759,962.68427C180.86804,962.6866,180.86229,962.6878,180.85944,962.68805L180.85742,962.68854C180.85742,962.6878,180.86116,962.6862,180.86969,962.684 Z M-83.956085,961.3907L-29.24224,961.4748L-29.242918,961.4755C-0.12907219,961.566,50.46218,961.6519,86.33926,961.71295L90.86589,961.7204L90.86499,961.7209C124.66582,961.84393,152.77434,962.00323,156.00717,962.2419L156.0014,962.24274C155.96898,962.9124,155.62901,964.7006,155.02118,966.8487L155.02007,966.8527L153.82158,971.24457L28.793743,972.21027L28.79419,972.2105L-95.46439,973.10065L-90.03369,967.54266L-83.956085,961.3907 Z M233.08054,960.37933C233.23306,961.0435,233.38252,963.0629,233.3985,965.67035L233.43117,971.1103L178.36832,971.4428L179.55655,967.3105C180.19731,965.1065,180.8186,963.2327,181.0554,962.6586L181.04932,962.65936C182.66304,962.4843,193.6529,961.9664,206.88956,961.4344L206.88956,961.4349L221.59634,960.8398L229.22203,960.5313L229.22203,960.53204C231.17516,960.4527,232.52122,960.39996,233.07387,960.3796 Z M-188.45067,1023.1095L-188.4531,1023.11L-188.45586,1023.1095L-188.45067,1023.11 Z M-182.52585,544.08075C-182.52838,544.08057,-182.53102,544.08057,-182.53363,544.0809L-186.77287,544.1763L-186.77287,544.1771L-186.78099,544.1763C-189.09111,544.26044,-196.45198,544.722,-203.12675,545.2496L-203.12683,545.24976L-203.15948,545.2517L-203.15948,545.25256L-203.19302,545.2545L-203.19296,545.2552C-215.33357,546.1606,-215.48581,546.1856,-240.49324,553.20654L-240.49324,553.2071C-263.37698,559.5348,-266.0679,560.2851,-265.65704,562.17926L-265.65045,562.20544L-265.65094,562.2059C-265.27094,563.9922,-249.11163,661.6606,-229.58748,780.18677L-222.29692,824.4645L-216.6785,858.58813C-191.95454,1008.7341,-189.81105,1021.62463,-189.03328,1022.802L-189.03328,1022.80225C-188.89041,1023.0183,-188.70506,1023.09766,-188.52579,1023.10876L-188.5282,1023.10925C-188.38089,1023.2739,-188.15054,1023.95483,-188.14471,1024.9414L-188.13235,1026.9585C-188.1316,1027.0829,-188.08136,1027.2014,-187.99284,1027.2888C-187.90448,1027.3763,-187.7849,1027.4249,-187.66045,1027.4242L274.32956,1024.6238C274.58337,1024.6221,274.78992,1024.4193,274.7955,1024.1653L275.12344,1009.43146C275.3524,1001.36163,275.4634,985.22516,275.39325,973.6175L275.26584,952.55914C275.26404,952.3002,275.05273,952.0916,274.7937,952.09283L-111.87203,954.4347L-111.88851,951.7065L-111.90788,948.5091C-111.90894,948.33777,-112.00329,948.18054,-112.15426,948.099C-112.22472,948.06116,-112.3023,948.04254,-112.37965,948.0428C-112.467705,948.04315,-112.55555,948.0687,-112.63208,948.11847L-114.36291,949.24084L-114.37564,949.2499C-114.86769,949.5922,-115.20183,949.7486,-115.391426,949.8044L-115.39135,949.8052C-116.15245,943.7832,-143.25233,779.9853,-143.94992,777.14905L-143.9491,777.1493C-143.94714,777.14886,-143.9697,777.05853,-144.02713,776.9714L-144.02571,776.972C-144.15106,776.786,-144.36633,776.75006,-144.37817,776.7484L-144.37802,776.7488C-144.56357,776.7071,-144.9126,776.69794,-145.32626,776.70074C-147.21689,776.71216,-151.76666,776.992,-156.95818,777.3984L-156.95938,777.3993C-161.92685,777.7472,-164.93282,777.9366,-166.87721,777.9482C-169.17062,777.9622,-169.88905,777.726,-170.56615,777.2802L-170.57649,777.2736C-172.26216,776.2266,-173.05225,773.95856,-172.4268,771.914L-172.42593,771.91095C-171.79564,769.80273,-168.8404,768.8946,-157.03008,768.2568L-157.03105,768.2574C-150.62555,767.9695,-146.71758,767.53516,-145.96066,766.9814L-145.96057,766.98193C-145.86371,766.91064,-145.67702,766.74384,-145.67874,766.4685C-145.67888,766.442,-145.68143,766.4175,-145.6818,766.4133L-145.68172,766.41284C-145.78162,765.3977,-153.90746,715.4664,-163.87521,655.0171L-163.87521,655.0178L-182.06024,544.4737C-182.09784,544.2456,-182.29567,544.0792,-182.52585,544.08075 Z"/>
</g>
<g style="fill:rgb(34,43,50); fill-opacity:0.99607843; stroke-linejoin: miter">
<path d="M-158.68211,732.9167L-153.36508,732.51654L-148.04785,732.1166Q-145.58372,764.8486,-143.11925,797.5798Q-148.43643,797.9801,-153.75346,798.3814Q-156.21797,765.6489,-158.68211,732.9167 Z"/>
</g>
<g style="fill:rgb(68,197,229); fill-opacity:0.99607843; stroke-linejoin: miter">
<path d="M-237.74234,573.5547L-211.83699,565.4385L-185.9318,557.32263L-125.019005,942.779Q-147.29495,964.9229,-169.57077,987.0661L-237.74234,573.5547 Z"/>
</g>
<g style="fill:rgb(0,0,0); fill-opacity:1.0; stroke-linejoin: miter">
<path d="M-203.73637,676.1344L-82.16098,657.2183L39.41446,638.302Q46.908463,686.4658,54.40242,734.6295Q-67.1729,753.5463,-188.74832,772.46277Q-196.2423,724.2987,-203.73637,676.1344"/>
</g>
<g style="fill:rgb(255,177,147); fill-opacity:1.0; stroke-linejoin: miter">
<path d="M159.35033,722.05743L159.35033,722.0586L180.32439,712.1126Q185.78683,715.835,187.85822,718.1937Q190.52261,720.9712,190.65912,724.5082Q190.66466,728.1627,187.8336,731.9477Q185.23584,734.97064,184.36975,735.4702Q182.99904,736.577,181.35274,737.54535Q175.105,741.602,155.1306,745.27216L159.35033,722.05743"/>
</g>
</g>
<g style="fill:rgb(0,0,0); fill-opacity:0.52156866; stroke-linejoin: miter">
<path d="M1044.7294,1010.263L1038.5037,1015.4303Q994.2414,1031.0465,779.48083,1040.4093Q563.2343,1049.7646,270.1906,1047.9963Q-9.481391,1045.5249,-177.16017,1033.5332Q-230.8863,1029.6569,-265.66803,1025.0858L-294.90106,1020.38635Q-318.9918,1015.536,-319.26263,1010.263Q-311.9494,994.0809,-119.51062,983.3355Q72.92819,972.59015,362.7334,972.1818Q652.53876,972.59015,844.97736,983.3355Q1037.4163,994.0809,1044.7294,1010.263"/>
</g>
</g>
</svg>